#Comment line ignore any data following # character 
#Hierarchical Translation and Rotation (.htr) file 
[Header]	
#Header keywords are followed by a single value 
FileType HTR		#Single word string
DataType HTRS		#Translation followed by rotation and scale data
FileVersion 1		#integer
NumSegments 84		#integer
NumFrames 2		#integer
DataFrameRate 30		#integer, data frame rate in this file
EulerRotationOrder ZYX
CalibrationUnits mm
RotationUnits Degrees
GlobalAxisofGravity Y
BoneLengthAxis Y
ScaleFactor 1.00
[SegmentNames&Hierarchy]
#CHILD	PARENT
MASTER GLOBAL
root MASTER
chest root
L_mid_tent01 root
R_mid_tent01 root
spine01 root
Bip01_Neck chest
L_humerus chest
R_humerus chest
weapon_bone chest
Bip01_Head Bip01_Neck
eye_left_bone Bip01_Head
eye_right_bone Bip01_Head
L_forearm L_humerus
L_front_hand L_forearm
L_weapon_bone L_forearm
L_front_hand01_01 L_front_hand
L_front_hand02_01 L_front_hand
L_front_hand03_01 L_front_hand
L_front_hand01_02 L_front_hand01_01
L_front_hand02_02 L_front_hand02_01
L_front_hand03_02 L_front_hand03_01
R_forearm R_humerus
R_front_hand R_forearm
R_weapon_bone R_forearm
R_front_hand01_01 R_front_hand
R_front_hand02_01 R_front_hand
R_front_hand03_01 R_front_hand
R_front_hand01_02 R_front_hand01_01
R_front_hand02_02 R_front_hand02_01
R_front_hand03_02 R_front_hand03_01
null_rope01_connect L_mid_tent01
Rope1_Seg01 null_rope01_connect
Rope1_Seg02 Rope1_Seg01
Rope1_Seg03 Rope1_Seg02
Rope1_Seg04 Rope1_Seg03
Rope1_Seg05 Rope1_Seg04
Rope1_Seg06 Rope1_Seg05
Rope1_Seg07 Rope1_Seg06
Rope1_Seg09 Rope1_Seg07
L_mid_hand01 Rope1_Seg09
L_mid_hand02 Rope1_Seg09
L_mid_hand03 Rope1_Seg09
null_rope02_connect R_mid_tent01
Rope2_Seg01 null_rope02_connect
Rope2_Seg02 Rope2_Seg01
Rope2_Seg03 Rope2_Seg02
Rope2_Seg04 Rope2_Seg03
Rope2_Seg05 Rope2_Seg04
Rope2_Seg06 Rope2_Seg05
Rope2_Seg07 Rope2_Seg06
Rope2_Seg09 Rope2_Seg07
R_mid_hand01 Rope2_Seg09
R_mid_hand02 Rope2_Seg09
R_mid_hand03 Rope2_Seg09
spine02 spine01
spine03 spine02
pelvis spine03
null_rope03_connect pelvis
null_rope04_connect pelvis
Rope3_Seg01 null_rope03_connect
Rope3_Seg02 Rope3_Seg01
Rope3_Seg03 Rope3_Seg02
Rope3_Seg04 Rope3_Seg03
Rope3_Seg05 Rope3_Seg04
Rope3_Seg06 Rope3_Seg05
Rope3_Seg07 Rope3_Seg06
Rope3_Seg08 Rope3_Seg07
Rope3_Seg09 Rope3_Seg08
R_rear_hand01 Rope3_Seg09
R_rear_hand02 Rope3_Seg09
R_rear_hand03 Rope3_Seg09
Rope4_Seg01 null_rope04_connect
Rope4_Seg02 Rope4_Seg01
Rope4_Seg03 Rope4_Seg02
Rope4_Seg04 Rope4_Seg03
Rope4_Seg05 Rope4_Seg04
Rope4_Seg06 Rope4_Seg05
Rope4_Seg07 Rope4_Seg06
Rope4_Seg08 Rope4_Seg07
Rope4_Seg09 Rope4_Seg08
L_rear_hand01 Rope4_Seg09
L_rear_hand02 Rope4_Seg09
L_rear_hand03 Rope4_Seg09
[BasePosition]
#SegmentName Tx, Ty, Tz, Rx, Ry, Rz, BoneLength
MASTER 0.000000 0.000000 0.000000 -90.000000 0.000000 0.000000 10.000000 
root 0.000000 0.000000 0.000000 0.000000 0.000000 0.000000 10.000000 
chest 0.000000 0.000000 0.000000 0.000000 0.000000 0.000000 10.000000 
L_mid_tent01 0.000000 0.000000 0.000000 0.000000 0.000000 0.000000 10.000000 
R_mid_tent01 0.000000 0.000000 0.000000 0.000000 0.000000 0.000000 10.000000 
spine01 0.000000 0.000000 0.000000 0.000000 0.000000 0.000000 10.000000 
Bip01_Neck 0.000000 0.000000 0.000000 0.000000 0.000000 0.000000 10.000000 
L_humerus 0.000000 0.000000 0.000000 0.000000 0.000000 0.000000 10.000000 
R_humerus 0.000000 0.000000 0.000000 0.000000 0.000000 0.000000 10.000000 
weapon_bone 0.000000 0.000000 0.000000 0.000000 0.000000 0.000000 10.000000 
Bip01_Head 0.000000 0.000000 0.000000 0.000000 0.000000 0.000000 10.000000 
eye_left_bone 0.000000 0.000000 0.000000 0.000000 0.000000 0.000000 10.000000 
eye_right_bone 0.000000 0.000000 0.000000 0.000000 0.000000 0.000000 10.000000 
L_forearm 0.000000 0.000000 0.000000 0.000000 0.000000 0.000000 10.000000 
L_front_hand 0.000000 0.000000 0.000000 0.000000 0.000000 0.000000 10.000000 
L_weapon_bone 0.000000 0.000000 0.000000 0.000000 0.000000 0.000000 10.000000 
L_front_hand01_01 0.000000 0.000000 0.000000 0.000000 0.000000 0.000000 10.000000 
L_front_hand02_01 0.000000 0.000000 0.000000 0.000000 0.000000 0.000000 10.000000 
L_front_hand03_01 0.000000 0.000000 0.000000 0.000000 0.000000 0.000000 10.000000 
L_front_hand01_02 0.000000 0.000000 0.000000 0.000000 0.000000 0.000000 10.000000 
L_front_hand02_02 0.000000 0.000000 0.000000 0.000000 0.000000 0.000000 10.000000 
L_front_hand03_02 0.000000 0.000000 0.000000 0.000000 0.000000 0.000000 10.000000 
R_forearm 0.000000 0.000000 0.000000 0.000000 0.000000 0.000000 10.000000 
R_front_hand 0.000000 0.000000 0.000000 0.000000 0.000000 0.000000 10.000000 
R_weapon_bone 0.000000 0.000000 0.000000 0.000000 0.000000 0.000000 10.000000 
R_front_hand01_01 0.000000 0.000000 0.000000 0.000000 0.000000 0.000000 10.000000 
R_front_hand02_01 0.000000 0.000000 0.000000 0.000000 0.000000 0.000000 10.000000 
R_front_hand03_01 0.000000 0.000000 0.000000 0.000000 0.000000 0.000000 10.000000 
R_front_hand01_02 0.000000 0.000000 0.000000 0.000000 0.000000 0.000000 10.000000 
R_front_hand02_02 0.000000 0.000000 0.000000 0.000000 0.000000 0.000000 10.000000 
R_front_hand03_02 0.000000 0.000000 0.000000 0.000000 0.000000 0.000000 10.000000 
null_rope01_connect 0.000000 0.000000 0.000000 0.000000 0.000000 0.000000 10.000000 
Rope1_Seg01 0.000000 0.000000 0.000000 0.000000 0.000000 0.000000 10.000000 
Rope1_Seg02 0.000000 0.000000 0.000000 0.000000 0.000000 0.000000 10.000000 
Rope1_Seg03 0.000000 0.000000 0.000000 0.000000 0.000000 0.000000 10.000000 
Rope1_Seg04 0.000000 0.000000 0.000000 0.000000 0.000000 0.000000 10.000000 
Rope1_Seg05 0.000000 0.000000 0.000000 0.000000 0.000000 0.000000 10.000000 
Rope1_Seg06 0.000000 0.000000 0.000000 0.000000 0.000000 0.000000 10.000000 
Rope1_Seg07 0.000000 0.000000 0.000000 0.000000 0.000000 0.000000 10.000000 
Rope1_Seg09 0.000000 0.000000 0.000000 0.000000 0.000000 0.000000 10.000000 
L_mid_hand01 0.000000 0.000000 0.000000 0.000000 0.000000 0.000000 10.000000 
L_mid_hand02 0.000000 0.000000 0.000000 0.000000 0.000000 0.000000 10.000000 
L_mid_hand03 0.000000 0.000000 0.000000 0.000000 0.000000 0.000000 10.000000 
null_rope02_connect 0.000000 0.000000 0.000000 0.000000 0.000000 0.000000 10.000000 
Rope2_Seg01 0.000000 0.000000 0.000000 0.000000 0.000000 0.000000 10.000000 
Rope2_Seg02 0.000000 0.000000 0.000000 0.000000 0.000000 0.000000 10.000000 
Rope2_Seg03 0.000000 0.000000 0.000000 0.000000 0.000000 0.000000 10.000000 
Rope2_Seg04 0.000000 0.000000 0.000000 0.000000 0.000000 0.000000 10.000000 
Rope2_Seg05 0.000000 0.000000 0.000000 0.000000 0.000000 0.000000 10.000000 
Rope2_Seg06 0.000000 0.000000 0.000000 0.000000 0.000000 0.000000 10.000000 
Rope2_Seg07 0.000000 0.000000 0.000000 0.000000 0.000000 0.000000 10.000000 
Rope2_Seg09 0.000000 0.000000 0.000000 0.000000 0.000000 0.000000 10.000000 
R_mid_hand01 0.000000 0.000000 0.000000 0.000000 0.000000 0.000000 10.000000 
R_mid_hand02 0.000000 0.000000 0.000000 0.000000 0.000000 0.000000 10.000000 
R_mid_hand03 0.000000 0.000000 0.000000 0.000000 0.000000 0.000000 10.000000 
spine02 0.000000 0.000000 0.000000 0.000000 0.000000 0.000000 10.000000 
spine03 0.000000 0.000000 0.000000 0.000000 0.000000 0.000000 10.000000 
pelvis 0.000000 0.000000 0.000000 0.000000 0.000000 0.000000 10.000000 
null_rope03_connect 0.000000 0.000000 0.000000 0.000000 0.000000 0.000000 10.000000 
null_rope04_connect 0.000000 0.000000 0.000000 0.000000 0.000000 0.000000 10.000000 
Rope3_Seg01 0.000000 0.000000 0.000000 0.000000 0.000000 0.000000 10.000000 
Rope3_Seg02 0.000000 0.000000 0.000000 0.000000 0.000000 0.000000 10.000000 
Rope3_Seg03 0.000000 0.000000 0.000000 0.000000 0.000000 0.000000 10.000000 
Rope3_Seg04 0.000000 0.000000 0.000000 0.000000 0.000000 0.000000 10.000000 
Rope3_Seg05 0.000000 0.000000 0.000000 0.000000 0.000000 0.000000 10.000000 
Rope3_Seg06 0.000000 0.000000 0.000000 0.000000 0.000000 0.000000 10.000000 
Rope3_Seg07 0.000000 0.000000 0.000000 0.000000 0.000000 0.000000 10.000000 
Rope3_Seg08 0.000000 0.000000 0.000000 0.000000 0.000000 0.000000 10.000000 
Rope3_Seg09 0.000000 0.000000 0.000000 0.000000 0.000000 0.000000 10.000000 
R_rear_hand01 0.000000 0.000000 0.000000 0.000000 0.000000 0.000000 10.000000 
R_rear_hand02 0.000000 0.000000 0.000000 0.000000 0.000000 0.000000 10.000000 
R_rear_hand03 0.000000 0.000000 0.000000 0.000000 0.000000 0.000000 10.000000 
Rope4_Seg01 0.000000 0.000000 0.000000 0.000000 0.000000 0.000000 10.000000 
Rope4_Seg02 0.000000 0.000000 0.000000 0.000000 0.000000 0.000000 10.000000 
Rope4_Seg03 0.000000 0.000000 0.000000 0.000000 0.000000 0.000000 10.000000 
Rope4_Seg04 0.000000 0.000000 0.000000 0.000000 0.000000 0.000000 10.000000 
Rope4_Seg05 0.000000 0.000000 0.000000 0.000000 0.000000 0.000000 10.000000 
Rope4_Seg06 0.000000 0.000000 0.000000 0.000000 0.000000 0.000000 10.000000 
Rope4_Seg07 0.000000 0.000000 0.000000 0.000000 0.000000 0.000000 10.000000 
Rope4_Seg08 0.000000 0.000000 0.000000 0.000000 0.000000 0.000000 10.000000 
Rope4_Seg09 0.000000 0.000000 0.000000 0.000000 0.000000 0.000000 10.000000 
L_rear_hand01 0.000000 0.000000 0.000000 0.000000 0.000000 0.000000 10.000000 
L_rear_hand02 0.000000 0.000000 0.000000 0.000000 0.000000 0.000000 10.000000 
L_rear_hand03 0.000000 0.000000 0.000000 0.000000 0.000000 0.000000 10.000000 
#Beginning of Data. Separated by tabs
#Fr	Tx	Ty	Tz	Rx	Ry	Rz	SF
[MASTER]
21 -1444.340454 3655.886963 -1453.991333 0.001660 0.001660 0.001660 4191.147949
22 -1424.664307 3771.929688 -1505.302246 0.001660 0.001660 0.001660 4303.841797
[root]
21 -1.550711 -30.983681 1320.906738 -94.055351 -20.891060 -88.879074 1321.270996
22 -9.551665 -9.766008 1388.023926 -92.991539 -16.404659 -89.152924 1388.091187
[chest]
21 -84.512650 -34.090519 0.000000 -6.708735 -2.509134 174.876022 91.129311
22 -84.512650 -34.090519 0.000000 -5.044202 -1.725545 172.533447 91.129311
[L_mid_tent01]
21 27.299158 22.179138 -249.918808 -5.466092 34.567081 61.125202 252.381790
22 27.299171 22.179127 -249.918808 -2.873554 36.557022 65.711220 252.381790
[R_mid_tent01]
21 23.228794 24.509907 226.238495 173.311661 -27.871260 53.371822 228.744751
22 23.228794 24.509907 226.238495 173.895706 -30.891867 58.389233 228.744751
[spine01]
21 -0.361383 -0.195265 0.000000 0.001875 0.001411 16.068384 0.410763
22 -0.361383 -0.195265 0.000000 0.001902 0.001376 18.224096 0.410763
[Bip01_Neck]
21 165.484543 71.581718 0.000119 176.643677 -1.657967 43.431911 180.302734
22 165.484543 71.581718 0.000119 176.643677 -1.657967 43.431911 180.302734
[L_humerus]
21 -13.983130 -135.272980 -120.471481 122.763565 75.638916 -158.205017 181.680161
22 -13.983130 -135.272980 -120.471481 72.619560 81.757477 155.459793 181.680161
[R_humerus]
21 -13.983309 -135.273102 125.287651 -148.459152 -78.882813 -130.514359 184.909012
22 -13.983309 -135.273102 125.287651 -73.293068 -88.875870 159.422852 184.909012
[weapon_bone]
21 235.964890 -300.705902 0.000000 0.000000 -89.951546 -128.212341 382.234833
22 235.964890 -300.705902 0.000000 0.000000 -89.951546 -128.212341 382.234833
[Bip01_Head]
21 213.436890 185.735504 11.520293 1.361782 3.137084 -43.898106 283.170807
22 213.440247 185.726334 11.638824 3.067562 2.982497 -43.899170 283.172150
[eye_left_bone]
21 -24.626970 125.451866 -64.772606 0.000000 -90.000000 -99.840431 143.318359
22 -24.626970 125.451866 -64.772606 0.000000 -90.000000 -99.840431 143.318359
[eye_right_bone]
21 -24.626970 125.451866 64.327362 0.000000 -89.965736 80.156380 143.117676
22 -24.626970 125.451866 64.327362 0.000000 -89.965736 80.156380 143.117676
[L_forearm]
21 322.776093 0.000000 -0.000119 0.000397 -0.002313 -109.486610 322.776093
22 322.776093 0.000000 -0.000119 0.000397 -0.002313 -109.456322 322.776093
[L_front_hand]
21 241.149185 -0.042021 -3.300071 -178.667953 -1.835447 -27.422350 241.171753
22 241.149185 -0.042021 -3.300071 -178.667953 -1.835447 -27.422350 241.171753
[L_weapon_bone]
21 156.183838 0.000000 0.000000 0.000014 0.000007 0.000001 156.183838
22 156.183838 0.000000 0.000000 0.000014 0.000007 0.000001 156.183838
[L_front_hand01_01]
21 86.095154 20.947098 -0.655860 -0.366594 -0.477154 75.385574 88.609184
22 86.095154 20.947098 -0.655860 -0.366594 -0.477154 75.385574 88.609184
[L_front_hand02_01]
21 86.935165 -11.437475 24.513514 154.399796 -59.883835 -61.369587 91.046425
22 86.935165 -11.437475 24.513514 154.399796 -59.883835 -61.369587 91.046425
[L_front_hand03_01]
21 86.637497 -14.123976 -20.424902 -153.913849 58.118122 -62.702866 90.126129
22 86.637497 -14.123976 -20.424902 -153.913849 58.118122 -62.702866 90.126129
[L_front_hand01_02]
21 71.020905 -0.000179 0.000030 0.000334 -0.002323 -106.376846 71.020905
22 71.020905 -0.000179 0.000030 0.000334 -0.002323 -106.377792 71.020905
[L_front_hand02_02]
21 71.020927 -0.000119 0.000060 0.000334 -0.002323 -106.376846 71.020927
22 71.020927 -0.000119 0.000060 0.000334 -0.002323 -106.377792 71.020927
[L_front_hand03_02]
21 71.020905 -0.000060 0.000060 0.000334 -0.002323 -106.376846 71.020905
22 71.020905 -0.000060 0.000060 0.000334 -0.002323 -106.377792 71.020905
[R_forearm]
21 322.776428 -0.000060 0.000030 0.202056 0.065301 -108.144257 322.776428
22 322.776428 -0.000060 0.000030 0.202085 0.065211 -108.093369 322.776428
[R_front_hand]
21 238.847015 -0.006795 2.210259 -2.635298 -10.645461 -26.312506 238.857239
22 238.847015 -0.006795 2.210259 -2.635298 -10.645461 -26.312506 238.857239
[R_weapon_bone]
21 155.664093 0.002503 -0.000030 0.003487 0.001180 -90.988930 155.664078
22 155.664093 0.002503 -0.000030 0.003487 0.001180 -90.988930 155.664078
[R_front_hand01_01]
21 87.624611 14.231146 22.918642 -154.633484 -59.950607 61.746033 91.683487
22 87.624611 14.231146 22.918642 -154.633499 -59.950619 61.746044 91.683487
[R_front_hand02_01]
21 89.356956 14.367283 -19.491137 154.602661 58.302849 63.744389 92.579636
22 89.356956 14.367283 -19.491137 154.602661 58.302849 63.744389 92.579636
[R_front_hand03_01]
21 87.286232 -22.307278 -0.143439 0.162155 -0.423168 -75.767921 90.091743
22 87.286232 -22.307278 -0.143439 0.162155 -0.423168 -75.767921 90.091743
[R_front_hand01_02]
21 71.020905 0.000060 0.000119 0.002323 -0.000334 106.381714 71.020905
22 71.020905 0.000060 0.000119 0.002323 -0.000334 106.381714 71.020905
[R_front_hand02_02]
21 71.020844 -0.000030 -0.000119 0.002323 -0.000334 106.381714 71.020836
22 71.020844 -0.000030 -0.000119 0.002323 -0.000334 106.381714 71.020836
[R_front_hand03_02]
21 71.020905 0.000000 0.000030 0.002323 -0.000334 106.381714 71.020905
22 71.020905 0.000000 0.000030 0.002323 -0.000334 106.381714 71.020905
[null_rope01_connect]
21 328.732483 0.000000 -0.000238 -142.631973 -51.898224 -168.566360 328.732483
22 328.732483 0.000000 -0.000238 -146.216492 -50.991852 -173.454315 328.732483
[Rope1_Seg01]
21 0.000061 -0.000042 0.000133 36.917137 -5.128380 -124.260979 0.000152
22 0.000066 -0.000041 0.000139 76.523994 -12.391403 -112.921471 0.000160
[Rope1_Seg02]
21 139.999863 -0.000179 0.000000 -1.255612 2.687022 -3.798342 139.999863
22 139.999863 -0.000179 0.000000 -11.818141 -0.647481 -4.730872 139.999863
[Rope1_Seg03]
21 139.999924 0.000060 -0.000060 -1.232821 3.881748 -5.287693 139.999924
22 139.999924 0.000060 -0.000060 -9.851341 0.470181 -6.614872 139.999924
[Rope1_Seg04]
21 139.999924 -0.000060 -0.000119 -3.278455 11.624997 -15.946701 139.999924
22 139.999924 -0.000060 -0.000119 -14.517227 3.534787 -20.462236 139.999924
[Rope1_Seg05]
21 139.999832 0.000119 -0.000060 0.559074 -7.661932 10.303306 139.999832
22 139.999832 0.000119 -0.000060 2.240138 1.459057 1.365952 139.999832
[Rope1_Seg06]
21 139.999954 0.000119 -0.000060 2.784357 -10.321472 14.283566 139.999954
22 139.999954 0.000119 -0.000060 21.245117 -6.444345 22.546940 139.999954
[Rope1_Seg07]
21 139.999985 0.000060 0.000000 2.696583 -2.498340 3.996289 139.999985
22 139.999985 0.000060 0.000000 13.247849 0.817712 6.019352 139.999985
[Rope1_Seg09]
21 121.602913 0.000119 -0.000089 -89.793175 -1.359789 0.847147 121.602913
22 121.602913 0.000119 -0.000089 -89.793175 -1.359789 0.847147 121.602913
[L_mid_hand01]
21 103.859421 1.038730 8.195221 130.544373 -67.584534 -38.866943 104.187431
22 103.859421 1.038730 8.195221 130.544373 -67.584534 -38.866943 104.187431
[L_mid_hand02]
21 105.572853 -4.139662 -10.864139 -168.923172 43.409309 -73.498886 106.211075
22 105.572853 -4.139662 -10.864139 -168.923172 43.409321 -73.498909 106.211075
[L_mid_hand03]
21 104.641464 17.579376 -3.913581 -6.012627 17.808174 74.893669 106.179977
22 104.641464 17.579376 -3.913581 -6.012629 17.808178 74.893669 106.179977
[null_rope02_connect]
21 328.732849 0.000179 -0.000119 -101.617119 62.700310 20.048887 328.732849
22 328.732849 0.000179 -0.000119 -115.935020 59.920158 15.031474 328.732849
[Rope2_Seg01]
21 0.000007 0.000285 0.000000 -67.418091 -27.879204 -88.990471 0.000285
22 0.000005 0.000292 0.000000 -70.181496 -28.371744 -84.772499 0.000292
[Rope2_Seg02]
21 139.999741 -0.000060 -0.000119 8.642866 5.119652 6.856277 139.999756
22 139.999741 -0.000060 -0.000119 9.873013 3.185743 7.422644 139.999756
[Rope2_Seg03]
21 140.000107 0.000030 0.000000 5.774372 -0.544601 6.301134 140.000107
22 140.000107 0.000030 0.000000 11.184699 2.677770 8.796511 140.000107
[Rope2_Seg04]
21 139.999802 0.000000 -0.000060 6.916799 8.419808 4.163568 139.999802
22 139.999802 0.000000 -0.000060 12.609212 4.783686 9.453801 139.999802
[Rope2_Seg05]
21 139.999985 -0.000060 0.000119 1.626466 24.322502 -5.124444 139.999985
22 139.999985 -0.000060 0.000119 -2.627730 16.101383 -9.427592 139.999985
[Rope2_Seg06]
21 139.999893 -0.000030 -0.000119 0.085326 10.381602 -2.578107 139.999893
22 139.999893 -0.000030 -0.000119 -1.385093 8.851877 -6.165544 139.999893
[Rope2_Seg07]
21 139.999893 0.000060 -0.000060 -0.028739 4.711208 -0.979602 139.999893
22 139.999893 0.000060 -0.000060 -0.164817 4.129955 -2.008684 139.999893
[Rope2_Seg09]
21 121.338966 0.000089 -0.000060 33.793236 -1.359788 -0.847141 121.338966
22 121.338966 0.000089 -0.000060 33.793236 -1.359788 -0.847141 121.338966
[R_mid_hand01]
21 104.680779 11.144459 -10.335981 -16.212063 45.237247 70.462852 105.778534
22 104.680779 11.144459 -10.335981 -16.212063 45.237247 70.462852 105.778534
[R_mid_hand02]
21 104.070427 2.443552 8.231699 49.067368 -67.749771 39.286453 104.424065
22 104.070427 2.443552 8.231699 49.067368 -67.749771 39.286453 104.424065
[R_mid_hand03]
21 106.028137 -11.221827 -5.996406 -177.101105 15.551026 -76.585571 106.788818
22 106.028137 -11.221827 -5.996406 -177.101105 15.551026 -76.585571 106.788818
[spine02]
21 129.756927 0.001550 0.000119 0.366308 -4.044180 -13.022363 129.756927
22 129.756927 0.001550 0.000119 0.361646 -4.044656 -12.959939 129.756927
[spine03]
21 78.613647 0.081537 -4.898859 1.910711 3.823997 16.689774 78.766174
22 78.613632 0.081569 -4.898851 1.905975 3.826433 16.617529 78.766159
[pelvis]
21 169.435242 0.051022 0.000000 -0.003419 -0.191371 -2.881997 169.435257
22 169.435242 0.051022 0.000000 -0.022748 -0.190730 2.776484 169.435257
[null_rope03_connect]
21 -1.257226 -2.466202 137.391083 179.119247 -87.284737 -85.052231 137.418976
22 -1.257226 -2.466202 137.391083 172.254868 -88.224472 -90.478836 137.418976
[null_rope04_connect]
21 -1.259640 -2.480268 -137.844437 179.119247 -87.284737 -85.052231 137.872513
22 -1.259640 -2.480268 -137.844437 172.254868 -88.224472 -90.478836 137.872513
[Rope3_Seg01]
21 0.000000 0.000000 0.000000 9.577966 22.788115 -98.897560 0.000000
22 0.000000 0.000000 0.000000 9.199153 27.628811 -97.947769 0.000000
[Rope3_Seg02]
21 139.999924 -0.000119 0.000060 1.058970 -3.714888 5.120444 139.999924
22 139.999924 -0.000119 0.000060 0.693028 -3.071244 4.684582 139.999924
[Rope3_Seg03]
21 139.999924 -0.000119 0.000119 0.897649 -4.650181 6.745605 139.999924
22 139.999924 -0.000119 0.000119 0.514444 -3.854993 6.108606 139.999924
[Rope3_Seg04]
21 139.999924 0.000119 0.000000 -0.124561 -8.562014 13.432389 139.999924
22 139.999924 0.000119 0.000000 -0.659754 -7.624468 12.940520 139.999924
[Rope3_Seg05]
21 139.999924 -0.000238 0.000060 0.112131 0.606614 -1.555709 139.999924
22 139.999924 -0.000238 0.000060 0.169550 0.419245 -1.427074 139.999924
[Rope3_Seg06]
21 139.999893 -0.000119 -0.000060 -0.916824 6.153165 -10.672109 139.999893
22 139.999893 -0.000119 -0.000060 -0.367544 5.661978 -10.553830 139.999893
[Rope3_Seg07]
21 139.999771 0.000060 -0.000119 -0.096427 2.190736 -3.834505 139.999771
22 139.999771 0.000060 -0.000119 0.107939 1.915281 -3.706967 139.999771
[Rope3_Seg08]
21 139.999985 -0.000060 0.000000 0.123650 1.315043 -2.301920 139.999985
22 139.999985 -0.000060 0.000000 0.257310 1.119576 -2.187010 139.999985
[Rope3_Seg09]
21 90.185997 -0.000179 -0.000060 89.793228 -1.359877 -0.847183 90.185997
22 90.185997 -0.000179 -0.000060 89.793228 -1.359877 -0.847183 90.185997
[R_rear_hand01]
21 103.366196 -6.073594 -10.757982 -177.714203 24.565960 -73.910950 104.101845
22 103.366196 -6.073594 -10.757982 -177.714203 24.565960 -73.910950 104.101845
[R_rear_hand02]
21 100.509819 12.039542 -7.992327 -12.874829 36.868488 72.167213 101.543350
22 100.509819 12.039542 -7.992327 -12.874829 36.868488 72.167213 101.543350
[R_rear_hand03]
21 101.539970 5.215704 5.435467 71.484581 -71.816628 21.513813 101.819031
22 101.539970 5.215704 5.435467 71.484581 -71.816628 21.513813 101.819031
[Rope4_Seg01]
21 -0.000036 -0.000270 0.000000 -100.767906 10.256504 -116.013756 0.000273
22 -0.000036 -0.000282 0.000000 -102.758514 15.382105 -118.628914 0.000284
[Rope4_Seg02]
21 139.999985 0.000060 0.000119 -0.776760 3.350538 4.705549 139.999985
22 139.999985 0.000060 0.000119 -0.983671 -0.423693 2.894018 139.999985
[Rope4_Seg03]
21 139.999924 0.000000 -0.000238 -1.193394 3.511316 5.122932 139.999924
22 139.999924 0.000000 -0.000238 -1.148124 -0.604792 3.173573 139.999924
[Rope4_Seg04]
21 139.999985 0.000000 0.000119 -1.698962 3.213908 5.230618 139.999985
22 139.999985 0.000000 0.000119 -1.465044 -3.958139 2.621068 139.999985
[Rope4_Seg05]
21 139.999802 -0.000060 -0.000119 -2.814364 4.459095 6.887120 139.999802
22 139.999802 -0.000060 -0.000119 -1.264673 2.820700 5.494064 139.999802
[Rope4_Seg06]
21 139.999924 0.000000 0.000060 -1.939488 2.477349 3.854195 139.999924
22 139.999924 0.000000 0.000060 -0.284742 6.822475 4.509304 139.999924
[Rope4_Seg07]
21 139.999802 0.000000 0.000000 -1.192761 1.211094 2.130897 139.999802
22 139.999802 0.000000 0.000000 -0.377189 2.719808 2.174514 139.999802
[Rope4_Seg08]
21 139.999924 0.000000 0.000119 -2.320424 0.685615 1.283860 139.999924
22 139.999924 0.000000 0.000119 -1.848649 1.347332 1.236398 139.999924
[Rope4_Seg09]
21 90.185791 0.000060 0.000060 -135.617828 2.228885 0.850567 90.185791
22 90.185791 0.000060 0.000060 -135.617828 2.228885 0.850567 90.185791
[L_rear_hand01]
21 101.696655 -8.392275 -7.654577 -12.874829 -36.868488 107.832764 102.329041
22 101.696655 -8.392275 -7.654577 -12.874829 -36.868488 107.832764 102.329041
[L_rear_hand02]
21 102.726799 -1.568258 5.773216 71.484581 71.816628 158.486160 102.900848
22 102.726799 -1.568258 5.773216 71.484581 71.816628 158.486160 102.900848
[L_rear_hand03]
21 104.552910 9.721220 -10.420293 -177.714203 -24.565960 -106.089035 105.519653
22 104.552910 9.721220 -10.420293 -177.714203 -24.565960 -106.089035 105.519653
